<svg xmlns="http://www.w3.org/2000/svg" xmlns:xlink="http://www.w3.org/1999/xlink" width="1366" zoomAndPan="magnify" viewBox="0 0 1024.5 576" height="768" preserveAspectRatio="xMidYMid meet" version="1.0"><defs><filter x="0%" y="0%" width="100%" height="100%" id="ec0f798477"><feColorMatrix values="0 0 0 0 1 0 0 0 0 1 0 0 0 0 1 0 0 0 1 0" color-interpolation-filters="sRGB"/></filter><clipPath id="de508862aa"><path d="M 0 0.140625 L 1024 0.140625 L 1024 575.859375 L 0 575.859375 Z M 0 0.140625 " clip-rule="nonzero"/></clipPath><mask id="ae1d1fe9dc"><g filter="url(#ec0f798477)"><rect x="-102.45" width="1229.4" fill="#000000" y="-57.6" height="691.2" fill-opacity="0.7"/></g></mask><clipPath id="b30cc108c5"><path d="M 154 0.710938 L 164 0.710938 L 164 21 L 154 21 Z M 154 0.710938 " clip-rule="nonzero"/></clipPath><clipPath id="0e17be5818"><path d="M 203 60 L 223.398438 60 L 223.398438 70 L 203 70 Z M 203 60 " clip-rule="nonzero"/></clipPath><clipPath id="01c51ea7bc"><path d="M 0.890625 27 L 223.398438 27 L 223.398438 176.785156 L 0.890625 176.785156 Z M 0.890625 27 " clip-rule="nonzero"/></clipPath><clipPath id="841817d9a9"><rect x="0" width="224" y="0" height="177"/></clipPath><mask id="25d5451b56"><g filter="url(#ec0f798477)"><rect x="-102.45" width="1229.4" fill="#000000" y="-57.6" height="691.2" fill-opacity="0.68"/></g></mask><clipPath id="34fa567b56"><path d="M 104.085938 14.230469 L 180.660156 14.230469 L 180.660156 230.136719 L 104.085938 230.136719 Z M 104.085938 14.230469 " clip-rule="nonzero"/></clipPath><clipPath id="f974deea9e"><rect x="0" width="182" y="0" height="232"/></clipPath></defs><g clip-path="url(#de508862aa)"><path fill="#ffffff" d="M 0 0.140625 L 1024 0.140625 L 1024 575.859375 L 0 575.859375 Z M 0 0.140625 " fill-opacity="1" fill-rule="nonzero"/><path fill="#fbf3d8" d="M 0 0.140625 L 1024 0.140625 L 1024 575.859375 L 0 575.859375 Z M 0 0.140625 " fill-opacity="1" fill-rule="nonzero"/></g><g mask="url(#ae1d1fe9dc)"><g transform="matrix(1, 0, 0, 1, 28, 57)"><g clip-path="url(#841817d9a9)"><g clip-path="url(#b30cc108c5)"><path fill="#ffea9a" d="M 163.847656 15.710938 L 163.847656 5.367188 C 163.847656 2.808594 161.773438 0.734375 159.21875 0.734375 C 156.660156 0.734375 154.585938 2.808594 154.585938 5.367188 L 154.585938 15.710938 C 154.585938 18.265625 156.660156 20.339844 159.21875 20.339844 C 161.773438 20.339844 163.847656 18.265625 163.847656 15.710938 Z M 163.847656 15.710938 " fill-opacity="1" fill-rule="nonzero"/></g><g clip-path="url(#0e17be5818)"><path fill="#ffea9a" d="M 218.605469 60.125 L 208.265625 60.125 C 205.707031 60.125 203.632812 62.199219 203.632812 64.757812 C 203.632812 67.316406 205.707031 69.390625 208.265625 69.390625 L 218.605469 69.390625 C 221.164062 69.390625 223.238281 67.316406 223.238281 64.757812 C 223.238281 62.199219 221.164062 60.125 218.605469 60.125 Z M 218.605469 60.125 " fill-opacity="1" fill-rule="nonzero"/></g><path fill="#ffea9a" d="M 134.695312 26.910156 C 135.480469 26.910156 136.277344 26.714844 137.007812 26.292969 C 139.222656 25.011719 139.980469 22.179688 138.703125 19.964844 L 133.535156 11.007812 C 132.25 8.796875 129.421875 8.027344 127.207031 9.3125 C 124.992188 10.59375 124.234375 13.421875 125.511719 15.640625 L 130.679688 24.597656 C 131.539062 26.082031 133.09375 26.910156 134.695312 26.910156 Z M 134.695312 26.910156 " fill-opacity="1" fill-rule="nonzero"/><path fill="#ffea9a" d="M 201.699219 44.863281 C 202.484375 44.863281 203.277344 44.664062 204.007812 44.242188 L 212.964844 39.074219 C 215.179688 37.796875 215.9375 34.964844 214.660156 32.75 C 213.382812 30.535156 210.554688 29.769531 208.335938 31.050781 L 199.378906 36.222656 C 197.164062 37.5 196.40625 40.332031 197.683594 42.546875 C 198.542969 44.035156 200.097656 44.863281 201.699219 44.863281 Z M 201.699219 44.863281 " fill-opacity="1" fill-rule="nonzero"/><path fill="#ffea9a" d="M 183.734375 26.910156 C 185.335938 26.910156 186.890625 26.082031 187.75 24.597656 L 192.921875 15.640625 C 194.199219 13.425781 193.441406 10.59375 191.226562 9.3125 C 189 8.027344 186.175781 8.796875 184.898438 11.007812 L 179.726562 19.964844 C 178.449219 22.179688 179.207031 25.011719 181.425781 26.292969 C 182.15625 26.714844 182.949219 26.910156 183.734375 26.910156 Z M 183.734375 26.910156 " fill-opacity="1" fill-rule="nonzero"/><path fill="#ffea9a" d="M 199.378906 93.292969 L 208.335938 98.464844 C 209.066406 98.882812 209.859375 99.082031 210.644531 99.082031 C 212.246094 99.082031 213.804688 98.253906 214.660156 96.769531 C 215.9375 94.550781 215.179688 91.71875 212.964844 90.441406 L 204.007812 85.273438 C 201.78125 83.988281 198.960938 84.75 197.683594 86.96875 C 196.40625 89.183594 197.164062 92.015625 199.378906 93.292969 Z M 199.378906 93.292969 " fill-opacity="1" fill-rule="nonzero"/><path fill="#ffea9a" d="M 114.425781 44.242188 C 115.15625 44.664062 115.949219 44.863281 116.734375 44.863281 C 118.335938 44.863281 119.894531 44.035156 120.75 42.546875 C 122.027344 40.332031 121.269531 37.5 119.054688 36.222656 L 110.097656 31.050781 C 107.878906 29.769531 105.046875 30.535156 103.773438 32.75 C 102.496094 34.964844 103.253906 37.796875 105.46875 39.074219 Z M 114.425781 44.242188 " fill-opacity="1" fill-rule="nonzero"/><g clip-path="url(#01c51ea7bc)"><path fill="#ffea9a" d="M 183.683594 98.34375 C 183.207031 97.101562 182.667969 95.890625 182.085938 94.707031 C 191.347656 87.613281 196.960938 76.515625 196.960938 64.757812 C 196.960938 43.945312 180.027344 27.011719 159.21875 27.011719 C 139.570312 27.011719 123.402344 42.097656 121.644531 61.292969 C 112.535156 52.433594 100 47.183594 86.59375 47.183594 C 59.527344 47.183594 37.507812 68.105469 37.507812 93.820312 C 37.507812 95.375 37.597656 96.949219 37.773438 98.535156 C 17.105469 100.613281 0.949219 117.289062 0.949219 137.488281 C 0.949219 159.089844 19.429688 176.664062 42.140625 176.664062 L 182.046875 176.664062 C 204.761719 176.664062 223.238281 159.089844 223.238281 137.488281 C 223.238281 116.410156 205.640625 99.164062 183.683594 98.34375 Z M 159.21875 36.273438 C 174.921875 36.273438 187.699219 49.050781 187.699219 64.757812 C 187.699219 73.320312 183.753906 81.4375 177.1875 86.808594 C 176.902344 86.4375 176.5625 86.113281 176.265625 85.75 C 175.628906 84.976562 174.976562 84.214844 174.292969 83.480469 C 173.726562 82.875 173.148438 82.285156 172.550781 81.707031 C 172.003906 81.183594 171.441406 80.683594 170.871094 80.183594 C 168.402344 78.007812 165.722656 76.09375 162.855469 74.449219 C 162.292969 74.125 161.730469 73.804688 161.15625 73.503906 C 160.308594 73.058594 159.453125 72.636719 158.578125 72.242188 C 157.894531 71.929688 157.199219 71.652344 156.5 71.371094 C 155.679688 71.042969 154.871094 70.699219 154.035156 70.410156 C 152.609375 69.925781 151.15625 69.503906 149.679688 69.140625 C 148.976562 68.96875 148.261719 68.847656 147.550781 68.703125 C 146.554688 68.503906 145.554688 68.324219 144.542969 68.183594 C 143.820312 68.085938 143.097656 68 142.367188 67.929688 C 141.257812 67.824219 140.140625 67.769531 139.015625 67.738281 C 138.539062 67.726562 138.074219 67.65625 137.59375 67.65625 C 137.472656 67.65625 137.335938 67.683594 137.210938 67.683594 C 135.164062 67.699219 133.09375 67.871094 131.015625 68.140625 C 130.992188 68.144531 130.972656 68.144531 130.945312 68.148438 C 130.804688 67.007812 130.730469 65.875 130.730469 64.757812 C 130.730469 49.050781 143.511719 36.273438 159.21875 36.273438 Z M 182.046875 167.402344 L 42.140625 167.402344 C 24.535156 167.402344 10.210938 153.984375 10.210938 137.488281 C 10.210938 121.003906 24.515625 107.59375 42.441406 107.59375 C 42.523438 107.59375 43.035156 107.625 43.09375 107.625 C 44.527344 107.675781 45.910156 107.042969 46.824219 105.925781 C 47.734375 104.8125 48.074219 103.335938 47.742188 101.933594 C 47.097656 99.199219 46.769531 96.472656 46.769531 93.820312 C 46.769531 73.210938 64.636719 56.445312 86.59375 56.445312 C 101.277344 56.445312 114.726562 64 121.691406 76.15625 C 122.730469 77.96875 124.855469 78.867188 126.882812 78.332031 C 127.320312 78.214844 127.757812 78.15625 128.199219 78.054688 C 128.246094 78.042969 128.292969 78.058594 128.339844 78.050781 C 129.855469 77.703125 131.292969 77.464844 132.695312 77.277344 C 133.042969 77.238281 133.390625 77.195312 133.738281 77.160156 C 134.597656 77.070312 135.425781 77.035156 136.25 77.003906 C 136.972656 76.980469 137.695312 76.957031 138.414062 76.96875 C 139.472656 76.992188 140.523438 77.070312 141.570312 77.167969 C 142.402344 77.25 143.226562 77.347656 144.046875 77.476562 C 145.109375 77.644531 146.164062 77.832031 147.203125 78.078125 C 147.882812 78.238281 148.550781 78.433594 149.21875 78.628906 C 150.015625 78.859375 150.800781 79.113281 151.582031 79.390625 C 152.257812 79.632812 152.929688 79.871094 153.589844 80.144531 C 154.441406 80.5 155.269531 80.902344 156.09375 81.3125 C 157.03125 81.777344 157.941406 82.277344 158.832031 82.808594 C 159.578125 83.253906 160.324219 83.703125 161.035156 84.191406 C 161.617188 84.59375 162.175781 85.019531 162.734375 85.445312 C 163.402344 85.960938 164.054688 86.496094 164.6875 87.050781 C 165.160156 87.464844 165.636719 87.871094 166.089844 88.304688 C 167.109375 89.289062 168.089844 90.3125 168.992188 91.40625 C 169.1875 91.640625 169.355469 91.894531 169.542969 92.132812 C 170.324219 93.125 171.058594 94.148438 171.738281 95.21875 C 173.53125 98.03125 174.980469 101.070312 175.9375 104.332031 C 176.542969 106.367188 178.46875 107.746094 180.570312 107.652344 L 181.300781 107.609375 C 181.546875 107.59375 181.796875 107.578125 182.046875 107.578125 C 199.652344 107.578125 213.972656 120.996094 213.972656 137.488281 C 213.972656 153.984375 199.652344 167.402344 182.046875 167.402344 Z M 182.046875 167.402344 " fill-opacity="1" fill-rule="nonzero"/></g></g></g></g><g mask="url(#25d5451b56)"><g transform="matrix(1, 0, 0, 1, 806, 288)"><g clip-path="url(#f974deea9e)"><g clip-path="url(#34fa567b56)"><path fill="#c5e4ff" d="M 142.417969 222.546875 C 125.601562 222.546875 111.917969 208.863281 111.917969 192.046875 C 111.917969 181.480469 117.273438 171.820312 126.242188 166.191406 L 128.058594 165.054688 L 128.058594 35.105469 C 128.058594 28.191406 133.683594 22.566406 140.597656 22.566406 L 144.242188 22.566406 C 151.15625 22.566406 156.78125 28.191406 156.78125 35.105469 L 156.78125 40 L 149.820312 40 C 148.59375 40 147.59375 41 147.59375 42.230469 L 147.59375 46.617188 C 147.59375 47.847656 148.59375 48.84375 149.820312 48.84375 L 156.78125 48.84375 L 156.78125 56.6875 L 149.820312 56.6875 C 148.59375 56.6875 147.59375 57.6875 147.59375 58.917969 L 147.59375 63.304688 C 147.59375 64.53125 148.59375 65.535156 149.820312 65.535156 L 156.78125 65.535156 L 156.78125 73.644531 L 149.820312 73.644531 C 148.59375 73.644531 147.59375 74.644531 147.59375 75.871094 L 147.59375 80.261719 C 147.59375 81.488281 148.59375 82.492188 149.820312 82.492188 L 156.78125 82.492188 L 156.78125 165.054688 L 158.59375 166.191406 C 167.5625 171.820312 172.921875 181.480469 172.921875 192.046875 C 172.921875 208.863281 159.234375 222.546875 142.417969 222.546875 Z M 164.519531 160.84375 L 164.519531 35.105469 C 164.519531 23.921875 155.421875 14.828125 144.242188 14.828125 L 140.597656 14.828125 C 129.414062 14.828125 120.320312 23.921875 120.320312 35.105469 L 120.320312 160.84375 C 110.203125 168.007812 104.179688 179.625 104.179688 192.046875 C 104.179688 213.132812 121.332031 230.285156 142.417969 230.285156 C 163.507812 230.285156 180.660156 213.132812 180.660156 192.046875 C 180.660156 179.625 174.636719 168.003906 164.519531 160.84375 " fill-opacity="1" fill-rule="nonzero"/></g><path fill="#c5e4ff" d="M 150.378906 172.5625 L 150.378906 106.308594 L 134.460938 106.308594 L 134.460938 172.5625 C 126.25 175.753906 120.421875 183.710938 120.421875 193.050781 C 120.421875 205.195312 130.273438 215.046875 142.417969 215.046875 C 154.570312 215.046875 164.414062 205.195312 164.414062 193.050781 C 164.414062 183.710938 158.589844 175.753906 150.378906 172.5625 " fill-opacity="1" fill-rule="nonzero"/><path fill="#c5e4ff" d="M 80.132812 83.957031 L 75.578125 86.589844 L 71.023438 83.957031 L 71.023438 78.699219 L 75.578125 76.070312 L 80.132812 78.699219 Z M 83.675781 91.5 L 87.25 93.652344 L 93.652344 110.789062 L 102.101562 107.636719 L 99.675781 101.140625 L 115.230469 110.511719 L 115.230469 99.980469 L 103.539062 92.9375 L 111.46875 91.765625 L 110.152344 82.84375 L 91.410156 85.609375 L 91.414062 85.628906 L 88.429688 83.835938 L 88.429688 78.871094 L 93.746094 75.667969 L 112.21875 78.226562 L 113.457031 69.292969 L 106.03125 68.265625 L 115.230469 62.722656 L 115.230469 52.1875 L 101.394531 60.527344 L 103.945312 53.507812 L 95.464844 50.425781 L 89.105469 67.933594 L 83.714844 71.179688 L 80.332031 69.230469 L 80.332031 60.503906 L 92.144531 45.898438 L 85.132812 40.226562 L 80.332031 46.160156 L 80.332031 30.8125 L 98.570312 10.507812 L 91.859375 4.484375 L 80.332031 17.3125 L 80.332031 0.00390625 L 71.3125 0.00390625 L 71.3125 16.8125 L 60.234375 4.484375 L 53.527344 10.507812 L 71.3125 30.3125 L 71.3125 45.929688 L 66.703125 40.226562 L 59.691406 45.898438 L 71.3125 60.273438 L 71.3125 68.945312 L 67.4375 71.179688 L 62.636719 68.285156 L 62.773438 68.234375 L 56.304688 50.425781 L 47.828125 53.507812 L 50.550781 61.003906 L 33.851562 50.941406 L 26.074219 25.484375 L 17.449219 28.121094 L 22.289062 43.972656 L 7.894531 35.292969 L 3.238281 43.019531 L 18.0625 51.957031 L 1.125 55.207031 L 2.824219 64.066406 L 29.625 58.925781 L 45.238281 68.332031 L 38.316406 69.292969 L 39.550781 78.226562 L 57.523438 75.738281 L 62.722656 78.871094 L 62.722656 83.835938 L 59.886719 85.542969 L 41.617188 82.84375 L 40.296875 91.765625 L 47.734375 92.867188 L 28.964844 104.175781 L 2.824219 99.164062 L 1.125 108.019531 L 17.402344 111.144531 L 3.945312 119.253906 L 8.601562 126.980469 L 22.484375 118.613281 L 17.449219 135.105469 L 26.074219 137.742188 L 34.046875 111.644531 L 52.273438 100.660156 L 49.667969 107.636719 L 58.117188 110.789062 L 64.699219 93.171875 L 67.476562 91.5 L 71.3125 93.710938 L 71.3125 101.015625 L 59.691406 115.390625 L 66.703125 121.066406 L 71.3125 115.363281 L 71.3125 133.449219 L 53.527344 153.25 L 60.234375 159.277344 L 71.3125 146.949219 L 71.3125 162.65625 L 80.332031 162.65625 L 80.332031 146.449219 L 91.859375 159.277344 L 98.570312 153.25 L 80.332031 132.949219 L 80.332031 115.128906 L 85.132812 121.066406 L 92.144531 115.390625 L 80.332031 100.785156 L 80.332031 93.429688 L 83.675781 91.5 " fill-opacity="1" fill-rule="nonzero"/></g></g></g></svg>