<svg xmlns="http://www.w3.org/2000/svg" xmlns:xlink="http://www.w3.org/1999/xlink" width="1366" zoomAndPan="magnify" viewBox="0 0 1024.5 576" height="768" preserveAspectRatio="xMidYMid meet" version="1.0"><defs><clipPath id="1b1c64d900"><path d="M 0 0.140625 L 1024 0.140625 L 1024 575.859375 L 0 575.859375 Z M 0 0.140625 " clip-rule="nonzero"/></clipPath><clipPath id="70fdeb0da9"><path d="M 182 57.710938 L 192 57.710938 L 192 78 L 182 78 Z M 182 57.710938 " clip-rule="nonzero"/></clipPath><clipPath id="f560ef83df"><path d="M 231 117 L 251.53125 117 L 251.53125 127 L 231 127 Z M 231 117 " clip-rule="nonzero"/></clipPath><clipPath id="50fb37b48d"><path d="M 28.890625 84 L 251.53125 84 L 251.53125 233.875 L 28.890625 233.875 Z M 28.890625 84 " clip-rule="nonzero"/></clipPath><clipPath id="a3aa0df7e3"><path d="M 910.085938 302.230469 L 986.660156 302.230469 L 986.660156 518.136719 L 910.085938 518.136719 Z M 910.085938 302.230469 " clip-rule="nonzero"/></clipPath></defs><g clip-path="url(#1b1c64d900)"><path fill="#ffffff" d="M 0 0.140625 L 1024 0.140625 L 1024 575.859375 L 0 575.859375 Z M 0 0.140625 " fill-opacity="1" fill-rule="nonzero"/><path fill="#faf2d4" d="M 0 0.140625 L 1024 0.140625 L 1024 575.859375 L 0 575.859375 Z M 0 0.140625 " fill-opacity="1" fill-rule="nonzero"/></g><g clip-path="url(#70fdeb0da9)"><path fill="#fae9a7" d="M 191.847656 72.710938 L 191.847656 62.367188 C 191.847656 59.808594 189.773438 57.734375 187.21875 57.734375 C 184.660156 57.734375 182.585938 59.808594 182.585938 62.367188 L 182.585938 72.710938 C 182.585938 75.265625 184.660156 77.339844 187.21875 77.339844 C 189.773438 77.339844 191.847656 75.265625 191.847656 72.710938 Z M 191.847656 72.710938 " fill-opacity="1" fill-rule="nonzero"/></g><g clip-path="url(#f560ef83df)"><path fill="#fae9a7" d="M 246.605469 117.125 L 236.265625 117.125 C 233.707031 117.125 231.632812 119.199219 231.632812 121.757812 C 231.632812 124.316406 233.707031 126.390625 236.265625 126.390625 L 246.605469 126.390625 C 249.164062 126.390625 251.238281 124.316406 251.238281 121.757812 C 251.238281 119.199219 249.164062 117.125 246.605469 117.125 Z M 246.605469 117.125 " fill-opacity="1" fill-rule="nonzero"/></g><path fill="#fae9a7" d="M 162.695312 83.910156 C 163.480469 83.910156 164.277344 83.714844 165.007812 83.292969 C 167.222656 82.011719 167.980469 79.179688 166.703125 76.964844 L 161.535156 68.007812 C 160.25 65.796875 157.421875 65.027344 155.207031 66.3125 C 152.992188 67.59375 152.234375 70.421875 153.511719 72.640625 L 158.679688 81.597656 C 159.539062 83.082031 161.09375 83.910156 162.695312 83.910156 Z M 162.695312 83.910156 " fill-opacity="1" fill-rule="nonzero"/><path fill="#fae9a7" d="M 229.699219 101.863281 C 230.484375 101.863281 231.277344 101.664062 232.007812 101.242188 L 240.964844 96.074219 C 243.179688 94.796875 243.9375 91.964844 242.660156 89.75 C 241.382812 87.535156 238.554688 86.769531 236.335938 88.050781 L 227.378906 93.222656 C 225.164062 94.5 224.40625 97.332031 225.683594 99.546875 C 226.542969 101.035156 228.097656 101.863281 229.699219 101.863281 Z M 229.699219 101.863281 " fill-opacity="1" fill-rule="nonzero"/><path fill="#fae9a7" d="M 211.734375 83.910156 C 213.335938 83.910156 214.890625 83.082031 215.75 81.597656 L 220.921875 72.640625 C 222.199219 70.425781 221.441406 67.59375 219.226562 66.3125 C 217 65.027344 214.175781 65.796875 212.898438 68.007812 L 207.726562 76.964844 C 206.449219 79.179688 207.207031 82.011719 209.425781 83.292969 C 210.15625 83.714844 210.949219 83.910156 211.734375 83.910156 Z M 211.734375 83.910156 " fill-opacity="1" fill-rule="nonzero"/><path fill="#fae9a7" d="M 227.378906 150.292969 L 236.335938 155.464844 C 237.066406 155.882812 237.859375 156.082031 238.644531 156.082031 C 240.246094 156.082031 241.804688 155.253906 242.660156 153.769531 C 243.9375 151.550781 243.179688 148.71875 240.964844 147.441406 L 232.007812 142.273438 C 229.78125 140.988281 226.960938 141.75 225.683594 143.96875 C 224.40625 146.183594 225.164062 149.015625 227.378906 150.292969 Z M 227.378906 150.292969 " fill-opacity="1" fill-rule="nonzero"/><path fill="#fae9a7" d="M 142.425781 101.242188 C 143.15625 101.664062 143.949219 101.863281 144.734375 101.863281 C 146.335938 101.863281 147.894531 101.035156 148.75 99.546875 C 150.027344 97.332031 149.269531 94.5 147.054688 93.222656 L 138.097656 88.050781 C 135.878906 86.769531 133.046875 87.535156 131.773438 89.75 C 130.496094 91.964844 131.253906 94.796875 133.46875 96.074219 Z M 142.425781 101.242188 " fill-opacity="1" fill-rule="nonzero"/><g clip-path="url(#50fb37b48d)"><path fill="#fae9a7" d="M 211.683594 155.34375 C 211.207031 154.101562 210.667969 152.890625 210.085938 151.707031 C 219.347656 144.613281 224.960938 133.515625 224.960938 121.757812 C 224.960938 100.945312 208.027344 84.011719 187.21875 84.011719 C 167.570312 84.011719 151.402344 99.097656 149.644531 118.292969 C 140.535156 109.433594 128 104.183594 114.59375 104.183594 C 87.527344 104.183594 65.507812 125.105469 65.507812 150.820312 C 65.507812 152.375 65.597656 153.949219 65.773438 155.535156 C 45.105469 157.613281 28.949219 174.289062 28.949219 194.488281 C 28.949219 216.089844 47.429688 233.664062 70.140625 233.664062 L 210.046875 233.664062 C 232.761719 233.664062 251.238281 216.089844 251.238281 194.488281 C 251.238281 173.410156 233.640625 156.164062 211.683594 155.34375 Z M 187.21875 93.273438 C 202.921875 93.273438 215.699219 106.050781 215.699219 121.757812 C 215.699219 130.320312 211.753906 138.4375 205.1875 143.808594 C 204.902344 143.4375 204.5625 143.113281 204.265625 142.75 C 203.628906 141.976562 202.976562 141.214844 202.292969 140.480469 C 201.726562 139.875 201.148438 139.285156 200.550781 138.707031 C 200.003906 138.183594 199.441406 137.683594 198.871094 137.183594 C 196.402344 135.007812 193.722656 133.09375 190.855469 131.449219 C 190.292969 131.125 189.730469 130.804688 189.15625 130.503906 C 188.308594 130.058594 187.453125 129.636719 186.578125 129.242188 C 185.894531 128.929688 185.199219 128.652344 184.5 128.371094 C 183.679688 128.042969 182.871094 127.699219 182.035156 127.410156 C 180.609375 126.925781 179.15625 126.503906 177.679688 126.140625 C 176.976562 125.96875 176.261719 125.847656 175.550781 125.703125 C 174.554688 125.503906 173.554688 125.324219 172.542969 125.183594 C 171.820312 125.085938 171.097656 125 170.367188 124.929688 C 169.257812 124.824219 168.140625 124.769531 167.015625 124.738281 C 166.539062 124.726562 166.074219 124.65625 165.59375 124.65625 C 165.472656 124.65625 165.335938 124.683594 165.210938 124.683594 C 163.164062 124.699219 161.09375 124.871094 159.015625 125.140625 C 158.992188 125.144531 158.972656 125.144531 158.945312 125.148438 C 158.804688 124.007812 158.730469 122.875 158.730469 121.757812 C 158.730469 106.050781 171.511719 93.273438 187.21875 93.273438 Z M 210.046875 224.402344 L 70.140625 224.402344 C 52.535156 224.402344 38.210938 210.984375 38.210938 194.488281 C 38.210938 178.003906 52.515625 164.59375 70.441406 164.59375 C 70.523438 164.59375 71.035156 164.625 71.09375 164.625 C 72.527344 164.675781 73.910156 164.042969 74.824219 162.925781 C 75.734375 161.8125 76.074219 160.335938 75.742188 158.933594 C 75.097656 156.199219 74.769531 153.472656 74.769531 150.820312 C 74.769531 130.210938 92.636719 113.445312 114.59375 113.445312 C 129.277344 113.445312 142.726562 121 149.691406 133.15625 C 150.730469 134.96875 152.855469 135.867188 154.882812 135.332031 C 155.320312 135.214844 155.757812 135.15625 156.199219 135.054688 C 156.246094 135.042969 156.292969 135.058594 156.339844 135.050781 C 157.855469 134.703125 159.292969 134.464844 160.695312 134.277344 C 161.042969 134.238281 161.390625 134.195312 161.738281 134.160156 C 162.597656 134.070312 163.425781 134.035156 164.25 134.003906 C 164.972656 133.980469 165.695312 133.957031 166.414062 133.96875 C 167.472656 133.992188 168.523438 134.070312 169.570312 134.167969 C 170.402344 134.25 171.226562 134.347656 172.046875 134.476562 C 173.109375 134.644531 174.164062 134.832031 175.203125 135.078125 C 175.882812 135.238281 176.550781 135.433594 177.21875 135.628906 C 178.015625 135.859375 178.800781 136.113281 179.582031 136.390625 C 180.257812 136.632812 180.929688 136.871094 181.589844 137.144531 C 182.441406 137.5 183.269531 137.902344 184.09375 138.3125 C 185.03125 138.777344 185.941406 139.277344 186.832031 139.808594 C 187.578125 140.253906 188.324219 140.703125 189.035156 141.191406 C 189.617188 141.59375 190.175781 142.019531 190.734375 142.445312 C 191.402344 142.960938 192.054688 143.496094 192.6875 144.050781 C 193.160156 144.464844 193.636719 144.871094 194.089844 145.304688 C 195.109375 146.289062 196.089844 147.3125 196.992188 148.40625 C 197.1875 148.640625 197.355469 148.894531 197.542969 149.132812 C 198.324219 150.125 199.058594 151.148438 199.738281 152.21875 C 201.53125 155.03125 202.980469 158.070312 203.9375 161.332031 C 204.542969 163.367188 206.46875 164.746094 208.570312 164.652344 L 209.300781 164.609375 C 209.546875 164.59375 209.796875 164.578125 210.046875 164.578125 C 227.652344 164.578125 241.972656 177.996094 241.972656 194.488281 C 241.972656 210.984375 227.652344 224.402344 210.046875 224.402344 Z M 210.046875 224.402344 " fill-opacity="1" fill-rule="nonzero"/></g><g clip-path="url(#a3aa0df7e3)"><path fill="#c5e4ff" d="M 948.417969 510.546875 C 931.601562 510.546875 917.917969 496.863281 917.917969 480.046875 C 917.917969 469.480469 923.273438 459.820312 932.242188 454.191406 L 934.058594 453.054688 L 934.058594 323.105469 C 934.058594 316.191406 939.683594 310.566406 946.597656 310.566406 L 950.242188 310.566406 C 957.15625 310.566406 962.78125 316.191406 962.78125 323.105469 L 962.78125 328 L 955.820312 328 C 954.59375 328 953.59375 329 953.59375 330.230469 L 953.59375 334.617188 C 953.59375 335.847656 954.59375 336.84375 955.820312 336.84375 L 962.78125 336.84375 L 962.78125 344.6875 L 955.820312 344.6875 C 954.59375 344.6875 953.59375 345.6875 953.59375 346.917969 L 953.59375 351.304688 C 953.59375 352.53125 954.59375 353.535156 955.820312 353.535156 L 962.78125 353.535156 L 962.78125 361.644531 L 955.820312 361.644531 C 954.59375 361.644531 953.59375 362.644531 953.59375 363.871094 L 953.59375 368.261719 C 953.59375 369.488281 954.59375 370.492188 955.820312 370.492188 L 962.78125 370.492188 L 962.78125 453.054688 L 964.59375 454.191406 C 973.5625 459.820312 978.921875 469.480469 978.921875 480.046875 C 978.921875 496.863281 965.234375 510.546875 948.417969 510.546875 Z M 970.519531 448.84375 L 970.519531 323.105469 C 970.519531 311.921875 961.421875 302.828125 950.242188 302.828125 L 946.597656 302.828125 C 935.414062 302.828125 926.320312 311.921875 926.320312 323.105469 L 926.320312 448.84375 C 916.203125 456.007812 910.179688 467.625 910.179688 480.046875 C 910.179688 501.132812 927.332031 518.285156 948.417969 518.285156 C 969.507812 518.285156 986.660156 501.132812 986.660156 480.046875 C 986.660156 467.625 980.636719 456.003906 970.519531 448.84375 " fill-opacity="1" fill-rule="nonzero"/></g><path fill="#c5e4ff" d="M 956.378906 460.5625 L 956.378906 394.308594 L 940.460938 394.308594 L 940.460938 460.5625 C 932.25 463.753906 926.421875 471.710938 926.421875 481.050781 C 926.421875 493.195312 936.273438 503.046875 948.417969 503.046875 C 960.570312 503.046875 970.414062 493.195312 970.414062 481.050781 C 970.414062 471.710938 964.589844 463.753906 956.378906 460.5625 " fill-opacity="1" fill-rule="nonzero"/><path fill="#c5e4ff" d="M 886.132812 371.957031 L 881.578125 374.589844 L 877.023438 371.957031 L 877.023438 366.699219 L 881.578125 364.070312 L 886.132812 366.699219 Z M 889.675781 379.5 L 893.25 381.652344 L 899.652344 398.789062 L 908.101562 395.636719 L 905.675781 389.140625 L 921.230469 398.511719 L 921.230469 387.980469 L 909.539062 380.9375 L 917.46875 379.765625 L 916.152344 370.84375 L 897.410156 373.609375 L 897.414062 373.628906 L 894.429688 371.835938 L 894.429688 366.871094 L 899.746094 363.667969 L 918.21875 366.226562 L 919.457031 357.292969 L 912.03125 356.265625 L 921.230469 350.722656 L 921.230469 340.1875 L 907.394531 348.527344 L 909.945312 341.507812 L 901.464844 338.425781 L 895.105469 355.933594 L 889.714844 359.179688 L 886.332031 357.230469 L 886.332031 348.503906 L 898.144531 333.898438 L 891.132812 328.226562 L 886.332031 334.160156 L 886.332031 318.8125 L 904.570312 298.507812 L 897.859375 292.484375 L 886.332031 305.3125 L 886.332031 288.003906 L 877.3125 288.003906 L 877.3125 304.8125 L 866.234375 292.484375 L 859.527344 298.507812 L 877.3125 318.3125 L 877.3125 333.929688 L 872.703125 328.226562 L 865.691406 333.898438 L 877.3125 348.273438 L 877.3125 356.945312 L 873.4375 359.179688 L 868.636719 356.285156 L 868.773438 356.234375 L 862.304688 338.425781 L 853.828125 341.507812 L 856.550781 349.003906 L 839.851562 338.941406 L 832.074219 313.484375 L 823.449219 316.121094 L 828.289062 331.972656 L 813.894531 323.292969 L 809.238281 331.019531 L 824.0625 339.957031 L 807.125 343.207031 L 808.824219 352.066406 L 835.625 346.925781 L 851.238281 356.332031 L 844.316406 357.292969 L 845.550781 366.226562 L 863.523438 363.738281 L 868.722656 366.871094 L 868.722656 371.835938 L 865.886719 373.542969 L 847.617188 370.84375 L 846.296875 379.765625 L 853.734375 380.867188 L 834.964844 392.175781 L 808.824219 387.164062 L 807.125 396.019531 L 823.402344 399.144531 L 809.945312 407.253906 L 814.601562 414.980469 L 828.484375 406.613281 L 823.449219 423.105469 L 832.074219 425.742188 L 840.046875 399.644531 L 858.273438 388.660156 L 855.667969 395.636719 L 864.117188 398.789062 L 870.699219 381.171875 L 873.476562 379.5 L 877.3125 381.710938 L 877.3125 389.015625 L 865.691406 403.390625 L 872.703125 409.066406 L 877.3125 403.363281 L 877.3125 421.449219 L 859.527344 441.25 L 866.234375 447.277344 L 877.3125 434.949219 L 877.3125 450.65625 L 886.332031 450.65625 L 886.332031 434.449219 L 897.859375 447.277344 L 904.570312 441.25 L 886.332031 420.949219 L 886.332031 403.128906 L 891.132812 409.066406 L 898.144531 403.390625 L 886.332031 388.785156 L 886.332031 381.429688 L 889.675781 379.5 " fill-opacity="1" fill-rule="nonzero"/></svg>